Coordinates
version=1
nRows=11
nColumns=63
inDegrees=yes

Units are S.I. units (second, meters, Newtons, ...)
If the header above contains a line with 'inDegrees', this indicates whether rotational values are in degrees (yes) or radians (no).

endheader
time	pelvis_tilt	pelvis_list	pelvis_rotation	pelvis_tx	pelvis_ty	pelvis_tz	hip_flexion_r	hip_adduction_r	hip_rotation_r	knee_angle_r	knee_angle_r_beta	ankle_angle_r	subtalar_angle_r	mtp_angle_r	hip_flexion_l	hip_adduction_l	hip_rotation_l	knee_angle_l	knee_angle_l_beta	ankle_angle_l	subtalar_angle_l	mtp_angle_l	L5_S1_Flex_Ext	L5_S1_Lat_Bending	L5_S1_axial_rotation	L4_L5_Flex_Ext	L4_L5_Lat_Bending	L4_L5_axial_rotation	L3_L4_Flex_Ext	L3_L4_Lat_Bending	L3_L4_axial_rotation	L2_L3_Flex_Ext	L2_L3_Lat_Bending	L2_L3_axial_rotation	L1_L2_Flex_Ext	L1_L2_Lat_Bending	L1_L2_axial_rotation	L1_T12_Flex_Ext	L1_T12_Lat_Bending	L1_T12_axial_rotation	Abs_r3	Abs_r2	Abs_r1	Abs_t1	Abs_t2	neck_flexion	neck_bending	neck_rotation	arm_flex_r	arm_add_r	arm_rot_r	elbow_flex_r	pro_sup_r	wrist_flex_r	wrist_dev_r	arm_flex_l	arm_add_l	arm_rot_l	elbow_flex_l	pro_sup_l	wrist_flex_l	wrist_dev_l
      3.06779661	      3.09243069	     -5.29301575	     80.21219462	      0.15946210	      0.73884608	      0.72903085	      3.17968273	      1.00296533	      4.33925520	      7.61871508	      0.13297166	     26.68924416	     11.48467704	      0.00000000	      2.80291094	     -2.95269184	    -16.41908557	      7.43323637	      0.12973445	     27.75885650	      9.46742612	      0.00000000	      0.23073194	      0.03865649	      2.15111538	      0.42849229	      0.05141313	      2.28556010	      0.37906951	      0.09398938	      2.28556010	      0.26370354	      0.09398938	      1.88222596	      0.21425768	      0.07882831	      1.74778125	      0.13184023	      0.05987890	      1.61333654	      1.64809519	      0.43728990	     11.96385843	      0.00000000	      0.00000000	     27.80477769	     -7.53440383	    -11.68742665	      2.23918418	     -8.63965206	     40.98863971	     45.46561675	     65.74628354	      0.64742504	     12.57246770	     18.10317485	     -7.39197466	     80.59170535	     43.10905501	     50.30076475	     -5.52917118	     -9.31714240
      3.08474576	      3.10028191	     -5.22147030	     80.33134516	      0.15903374	      0.73902962	      0.72848319	      2.95868541	      0.97504907	      4.39507321	      7.38665272	      0.12892141	     26.64807192	     11.30478937	      0.00000000	      2.57662025	     -2.84913796	    -16.14748643	      7.09520427	      0.12383468	     27.67624189	      9.25028158	      0.00000000	      0.21461560	      0.03248888	      2.12975910	      0.39856263	      0.04321021	      2.26286904	      0.35259197	      0.07899345	      2.26286904	      0.24528417	      0.07899345	      1.86353921	      0.19929205	      0.06625132	      1.73042927	      0.12263135	      0.05032527	      1.59731932	      1.53297778	      0.36752067	     11.84508117	      0.00000000	      0.00000000	     27.80418777	     -7.49783850	    -11.68391834	      2.33726262	     -8.65317565	     41.48421601	     45.39924776	     65.70213061	      0.45689215	     12.55767931	     18.05926042	     -7.54743457	     80.49179766	     43.30934290	     50.54874526	     -5.53395863	     -9.37757823
      3.10169492	      3.06073651	     -5.12144191	     80.56282810	      0.15857070	      0.73923078	      0.72775335	      2.74555486	      0.91021923	      4.58086509	      7.25914240	      0.12669594	     26.64282846	     10.80436489	      0.00000000	      2.31823042	     -2.67340450	    -15.57587432	      6.76272336	      0.11803179	     27.31576465	      8.77268291	      0.00000000	      0.19770007	      0.01961022	      2.09192478	      0.36714880	      0.02608159	      2.22267008	      0.32480145	      0.04768028	      2.22267008	      0.22595141	      0.04768028	      1.83043418	      0.18358429	      0.03998915	      1.69968888	      0.11296582	      0.03037623	      1.56894358	      1.41215185	      0.22183469	     11.63465804	      0.00000000	      0.00000000	     27.80682695	     -7.42771590	    -11.53291936	      2.51460733	     -8.68373801	     42.30903992	     45.33547166	     65.65090071	      0.12399034	     12.45243331	     18.00171607	     -7.65440470	     80.56414552	     43.30383317	     51.40619938	     -5.46741843	     -9.56286582
      3.11864407	      3.01581287	     -5.09706686	     80.77347852	      0.15809950	      0.73930311	      0.72747461	      2.69996176	      0.84990492	      4.63506100	      7.24796283	      0.12650082	     26.58220233	     10.47064803	      0.00000000	      2.25959100	     -2.54419684	    -15.16315691	      6.68990436	      0.11676086	     27.04944818	      8.33424779	      0.00000000	      0.19163780	      0.01175079	      2.07490460	      0.35589056	      0.01562855	      2.20458613	      0.31484174	      0.02857086	      2.20458613	      0.21902284	      0.02857086	      1.81554152	      0.17795486	      0.02396221	      1.68585999	      0.10950184	      0.01820197	      1.55617845	      1.36884963	      0.13292726	     11.53999690	      0.00000000	      0.00000000	     27.77237405	     -7.22126237	    -11.08398127	      2.83126281	     -8.66711395	     43.19539857	     45.04111948	     66.29049377	     -0.26578425	     12.29296845	     18.12544676	     -7.65082331	     81.25299459	     42.92604250	     53.82360454	     -5.03390411	    -10.33812249
      3.13559322	      2.97764397	     -5.09539860	     81.10170966	      0.15755648	      0.73933071	      0.72731037	      2.59555763	      0.78860679	      4.37496114	      7.05296802	      0.12309751	     26.39154488	     10.45300218	      0.00000000	      2.29805068	     -2.45677503	    -15.25168033	      6.75783007	      0.11794639	     26.71948047	      8.43909423	      0.00000000	      0.18855856	      0.00275777	      2.05881251	      0.35017209	      0.00366783	      2.18748829	      0.30978285	      0.00670523	      2.18748829	      0.21550357	      0.00670523	      1.80146095	      0.17509547	      0.00562364	      1.67278516	      0.10774236	      0.00427178	      1.54410938	      1.34685490	      0.03119640	     11.45049754	      0.00000000	      0.00000000	     27.73892208	     -7.17188999	    -10.95359941	      3.08431515	     -8.53721021	     43.64475388	     44.66852156	     66.47489542	     -0.15799453	     12.46925173	     18.49170229	     -7.66450414	     82.74236662	     42.72231103	     55.20821231	     -4.56069152	    -10.11693828
      3.15254237	      2.89508429	     -5.00986844	     81.57712827	      0.15685155	      0.73932745	      0.72728570	      2.48474087	      0.63720379	      3.53322781	      7.05048894	      0.12305425	     26.46443212	     11.03513333	      0.00000000	      2.38659657	     -2.42182720	    -16.15781037	      7.11598001	      0.12419728	     26.85276898	     10.10930928	      0.00000000	      0.16757176	     -0.01973773	      2.08579168	      0.31119751	     -0.02625119	      2.21615366	      0.27530364	     -0.04799033	      2.21615366	      0.19151776	     -0.04799033	      1.82506772	      0.15560714	     -0.04024919	      1.69470574	      0.09575050	     -0.03057375	      1.56434376	      1.19694831	     -0.22327719	     11.60054758	      0.00000000	      0.00000000	     27.73271608	     -7.03865960	    -11.54770943	      3.24943881	     -8.52335821	     44.05365903	     44.46795213	     65.02020328	     -0.19960084	     12.33953174	     18.84116975	     -7.45778995	     83.50268205	     41.84169676	     61.00370247	     -2.91142510	    -10.24916139
      3.16949153	      2.75571828	     -5.04763662	     82.10684667	      0.15615532	      0.73932908	      0.72733829	      2.42523597	      0.48347230	      3.12655754	      6.86534127	      0.11982281	     26.31871021	     10.86771160	      0.00000000	      2.59008558	     -2.26460508	    -16.09273102	      7.30053753	      0.12741842	     26.55804040	     10.31346611	      0.00000000	      0.17078084	     -0.04426870	      2.10886078	      0.31715709	     -0.05887738	      2.24066458	      0.28057584	     -0.10763493	      2.24066458	      0.19518542	     -0.10763493	      1.84525318	      0.15858708	     -0.09027274	      1.71344939	      0.09758417	     -0.06857222	      1.58164559	      1.21987044	     -0.50077644	     11.72885101	      0.00000000	      0.00000000	     27.68158360	     -6.72593951	    -11.59544202	      3.50783744	     -8.40557545	     44.42099435	     44.01433315	     64.70166226	      0.00685255	     12.47598486	     19.56679276	     -7.25362651	     85.90550024	     41.31554401	     63.04887696	     -2.56921975	     -9.96536260
      3.18644068	      2.62783285	     -4.93913692	     82.84053660	      0.15532701	      0.73930101	      0.72726936	      2.26581627	      0.31519584	      2.60835757	      6.89197801	      0.12028771	     26.40958078	     10.64055682	      0.00000000	      2.71870288	     -2.13289746	    -15.76394564	      7.62247424	      0.13303727	     26.68489375	     10.74609237	      0.00000000	      0.14755208	     -0.07760535	      2.16421789	      0.27401897	     -0.10321511	      2.29948151	      0.24241332	     -0.18868964	      2.29948151	      0.16863728	     -0.18868964	      1.89369066	      0.13701686	     -0.15825282	      1.75842704	      0.08431126	     -0.12021068	      1.62316342	      1.05394977	     -0.87788719	     12.03673066	      0.00000000	      0.00000000	     27.69474485	     -6.44943550	    -12.46527269	      3.34080081	     -8.41926366	     44.06392680	     44.03074653	     63.60236674	      0.21226992	     12.09609150	     20.67029399	     -7.01972856	     88.87611951	     40.86524027	     66.67195749	     -2.49844578	    -10.34825854
      3.20338983	      2.58349797	     -5.02882764	     83.22798178	      0.15494750	      0.73925950	      0.72699075	      2.30974876	      0.24754005	      1.87499771	      6.91279130	      0.12065097	     26.48236348	     10.96925261	      0.00000000	      2.95404053	     -2.16399864	    -16.41327262	      7.85576754	      0.13710901	     26.83631389	     11.87960332	      0.00000000	      0.16113992	     -0.09601683	      2.24282402	      0.29925295	     -0.12770238	      2.38300052	      0.26473678	     -0.23345531	      2.38300052	      0.18416682	     -0.23345531	      1.96247101	      0.14963453	     -0.19579751	      1.82229451	      0.09207535	     -0.14873006	      1.68211801	      1.15100636	     -1.08616155	     12.47391434	      0.00000000	      0.00000000	     27.73412098	     -6.93529566	    -13.65162013	      3.12718244	     -8.43297752	     44.43993368	     44.13466069	     58.03035087	     -1.14388627	     11.70341305	     20.25016858	     -6.99815452	     87.45005401	     40.61888621	     74.07550878	     -2.67664865	    -10.11280372
      3.22033898	      2.51181216	     -5.09220596	     83.72692733	      0.15425172	      0.73919913	      0.72661137	      2.31830116	      0.14486570	      1.37248017	      6.95079389	      0.12131424	     26.53029738	     10.81908476	      0.00000000	      3.09960052	     -2.04792161	    -15.77301167	      7.87459001	      0.13743752	     26.90141483	     11.62073458	      0.00000000	      0.17895693	     -0.11199929	      2.29756751	      0.33234091	     -0.14895905	      2.44116548	      0.29400834	     -0.27231507	      2.44116548	      0.20452987	     -0.27231507	      2.01037157	      0.16617940	     -0.22838895	      1.86677360	      0.10225599	     -0.17348690	      1.72317563	      1.27827143	     -1.26695835	     12.77838123	      0.00000000	      0.00000000	     27.80776083	     -7.21503061	    -14.20336781	      2.70847479	     -8.39537165	     43.84925723	     44.28324313	     57.15212008	     -1.54882149	     11.16422464	     20.38430115	     -6.99905855	     88.12418624	     40.73752741	     75.81250789	     -3.10374210	     -9.68966819
      3.23728814	      2.49224897	     -5.18597350	     84.23715237	      0.15347725	      0.73911907	      0.72613941	      2.34499215	      0.09515784	      0.98100092	      6.99657845	      0.12211333	     26.56404253	     10.51436936	      0.00000000	      3.26127319	     -2.00814295	    -15.38019417	      7.90815770	      0.13802339	     27.08229601	     11.75038077	      0.00000000	      0.20576168	     -0.11770655	      2.29979672	      0.38212001	     -0.15654971	      2.44353401	      0.33804586	     -0.28619171	      2.44353401	      0.23516502	     -0.28619171	      2.01232213	      0.19107029	     -0.24002720	      1.86858483	      0.11757222	     -0.18232745	      1.72484754	      1.46973508	     -1.33152003	     12.79077940	      0.00000000	      0.00000000	     27.91184257	     -7.52169274	    -14.34570302	      2.34780346	     -8.37101573	     43.50343187	     44.41400958	     56.92505209	     -1.94892280	     10.27339945	     20.09070993	     -7.16555788	     87.52719231	     41.07841655	     76.68157372	     -2.76327591	     -8.83071645
